# xmcd
#
# Track frame offsets:
#	150
#	16075
#	35236
#	48770
#	65668
#	82105
#	96520
#	114636
#	131083
#	144215
#	160200
#	176864
#	198580
#	216403
#	234908
#	248431
#	262448
#	277250
#	294127
#	310715
#	328976
#
# Disc length: 4633 seconds
#
# Revision: 0
# Processed by: cddbd v1.5.1PL0 Copyright (c) Steve Scherf et al.
# Submitted via: dBpowerAMP V4.0
#
DISCID=46121715
DTITLE=Especial Sertanejo - As Mais Tocadas
DYEAR=2004
DGENRE=Sertanejo (BR)
TTITLE0=Bruno and Marrone - Te Amar Foi Ilusão
TTITLE1=Rick and Renner - Eu Mereço
TTITLE2=Jefferson and Júlio - Prisioneiro
TTITLE3=Ataíde and Alexandre - Todas As Noites
TTITLE4=Eduardo Costa - Quando O Amor É Pra Valer
TTITLE5=Leonardo - Só Mais Uma Vez
TTITLE6=Lucas and Luan - Caso Solidão
TTITLE7=Gino and Geno - Troféu Da Dor
TTITLE8=Emílio and Eduardo - Ame Quem Te Ama
TTITLE9=Bruno and Marrone - O Amor Está Aqui
TTITLE10=Décio and Ramon - Coração Atrevido
TTITLE11=Neube Alexandre - Quem De Nós Dois
TTITLE12=Lucas and Luan - Só Pra Vadiar
TTITLE13=Jad and Jefferson - Coisas Do Coração
TTITLE14=MatoGrosso and Mathias - 24 Horas De Amor
TTITLE15=Gino and Geno - Amo Você
TTITLE16=Felipe and Falcão - Tô Indo Embora
TTITLE17=Di Paulo and Paulino - Nada Mudou
TTITLE18=Gian and Giovani - Seu Amor Ainda É Tudo
TTITLE19=Rick and Renner - Quero Ver Você Feliz
TTITLE20=Sérgio and Serginho - Seu Veneno
EXTD=
EXTT0=
EXTT1=
EXTT2=
EXTT3=
EXTT4=
EXTT5=
EXTT6=
EXTT7=
EXTT8=
EXTT9=
EXTT10=
EXTT11=
EXTT12=
EXTT13=
EXTT14=
EXTT15=
EXTT16=
EXTT17=
EXTT18=
EXTT19=
EXTT20=
PLAYORDER=
